<svg width="127" height="35" viewBox="0 0 127 35" fill="none" xmlns="http://www.w3.org/2000/svg">
<path d="M91.0115 13.7152C87.6616 13.7152 84.9229 16.4719 84.9229 19.8837C84.9229 23.2956 87.639 26.0522 91.0115 26.0522C94.384 26.0522 97.1001 23.3182 97.1001 19.9063C97.1001 16.4945 94.3614 13.7152 91.0115 13.7152ZM91.0115 23.0019C89.3366 23.0019 87.9559 21.6236 87.9559 19.9063C87.9559 18.1891 89.3139 16.8108 91.0115 16.8108C92.7091 16.8108 94.0671 18.1891 94.0671 19.9063C94.0671 21.6236 92.6864 23.0019 91.0115 23.0019Z" fill="#2C3D4D"/>
<path d="M62.1297 13.7379C58.7798 13.7379 56.041 16.4945 56.041 19.9064C56.041 23.3183 58.7571 26.0749 62.1297 26.0749C65.5022 26.0749 68.2183 23.3183 68.2183 19.9064C68.2183 16.4945 65.4796 13.7379 62.1297 13.7379ZM62.1297 23.0019C60.4547 23.0019 59.074 21.6236 59.074 19.9064C59.074 18.1891 60.4321 16.8108 62.1297 16.8108C63.8272 16.8108 65.1853 18.2117 65.1853 19.9064C65.1853 21.6236 63.8046 23.0019 62.1297 23.0019Z" fill="#2C3D4D"/>
<path d="M48.4588 13.7379C47.3497 13.7379 46.3085 14.0317 45.4031 14.5739V9.21887H42.3701V25.849H45.4031V25.2615C46.3085 25.7812 47.3497 26.0975 48.4588 26.0975C51.8087 26.0975 54.5474 23.3409 54.5474 19.929C54.5474 16.5171 51.8087 13.7379 48.4588 13.7379ZM48.4588 23.002C46.7838 23.002 45.4031 21.6236 45.4031 19.9064C45.4031 18.1892 46.7612 16.8109 48.4588 16.8109C50.1337 16.8109 51.5144 18.1892 51.5144 19.9064C51.4918 21.6236 50.1337 23.002 48.4588 23.002Z" fill="#2C3D4D"/>
<path d="M82.6597 19.8611C82.6371 16.4719 79.921 13.7152 76.5711 13.7152C75.462 13.7152 74.4208 14.009 73.5154 14.5513V13.9638H70.4824V25.8489H73.5154V19.9063C73.5154 18.1891 74.8735 16.8108 76.5711 16.8108C78.246 16.8108 79.6267 18.1891 79.6267 19.9063V25.8489H82.6597V19.8611Z" fill="#2C3D4D"/>
<path d="M120.662 19.8838C120.64 16.4945 117.923 13.7379 114.574 13.7379C112.763 13.7379 111.133 14.5513 110.001 15.8392C108.892 14.5513 107.263 13.7379 105.429 13.7379C104.32 13.7379 103.279 14.0316 102.374 14.5739V13.9864H99.3633V25.8715H102.396V19.9064C102.396 18.1891 103.754 16.8108 105.452 16.8108C107.127 16.8108 108.508 18.1891 108.508 19.9064V25.8489H111.541V19.9064C111.541 18.1891 112.899 16.8108 114.596 16.8108C116.271 16.8108 117.652 18.1891 117.652 19.9064V25.8489H120.685L120.662 19.8838Z" fill="#2C3D4D"/>
<path d="M126.728 13.9641H123.695V25.8492H126.728V13.9641Z" fill="#2C3D4D"/>
<path d="M125.212 12.5631C126.2 12.5631 127 11.7538 127 10.7555C127 9.75717 126.2 8.94788 125.212 8.94788C124.224 8.94788 123.424 9.75717 123.424 10.7555C123.424 11.7538 124.224 12.5631 125.212 12.5631Z" fill="#2C3D4D"/>
<path fill-rule="evenodd" clip-rule="evenodd" d="M14.7803 0H20.2804C25.0563 0 27.0707 0.542285 28.9947 1.58167C30.9412 2.62105 32.4577 4.13493 33.4763 6.05552C34.5174 7.99871 35.0607 9.98709 35.0607 14.7547V20.2453C35.0607 25.0129 34.5174 27.0239 33.4763 28.9445C32.4351 30.8877 30.9186 32.4015 28.9947 33.4183C27.0481 34.4577 25.0563 35 20.2804 35H14.7803C10.0044 35 7.98994 34.4577 6.06601 33.4183C4.11946 32.379 2.60295 30.8651 1.58441 28.9445C0.543225 27.0013 0 25.0129 0 20.2453V14.7547C0 9.98709 0.543225 7.97611 1.58441 6.05552C2.62559 4.11233 4.14209 2.59845 6.06601 1.58167C7.98994 0.542285 10.0044 0 14.7803 0Z" fill="#2AC6E8"/>
<path d="M20.3032 14.7096H14.7578V20.268H20.3032H25.8713V14.7096H20.3032Z" fill="#FDBB2B"/>
<path d="M20.3039 20.2681H14.7585H9.19043V23.5444C9.19043 24.8097 10.209 25.8265 11.4765 25.8265H14.6C14.7132 25.8265 14.8038 25.8717 14.8943 25.9395L19.5796 29.8258C19.8739 30.0744 20.3265 29.871 20.3265 29.4869V26.301C20.3265 26.0524 20.5303 25.8491 20.7792 25.8491H23.6085C24.8761 25.8491 25.8946 24.8323 25.8946 23.567V20.2681H20.3039Z" fill="white"/>
<path d="M20.3037 9.17365H14.3735C11.5216 9.17365 9.21289 11.4784 9.21289 14.3254V20.2679H14.7583V14.7095H20.3037H25.8492V9.17365H20.3037Z" fill="#2C3D4D"/>
</svg>
